<svg width="54" height="66" viewBox="0 0 54 66" fill="none" xmlns="http://www.w3.org/2000/svg">
<path d="M2.33594 9.3457L9.34269 11.6813L2.33594 9.3457Z" fill="#95642A"/>
<path d="M3.07489 7.13053C2.78376 7.0333 2.47631 6.99441 2.17014 7.01608C1.86397 7.03775 1.56509 7.11956 1.29055 7.25683C1.01602 7.39409 0.771239 7.58412 0.570199 7.81606C0.36916 8.04799 0.21581 8.31728 0.118913 8.60852C-0.0760416 9.1959 -0.0299076 9.83665 0.247211 10.39C0.524329 10.9434 1.00978 11.3642 1.5969 11.5599L8.60365 13.8955C8.89478 13.9927 9.20223 14.0316 9.5084 14.01C9.81457 13.9883 10.1135 13.9065 10.388 13.7692C10.6625 13.6319 10.9073 13.4419 11.1083 13.21C11.3094 12.9781 11.4627 12.7088 11.5596 12.4175C11.7546 11.8301 11.7084 11.1894 11.4313 10.636C11.1542 10.0826 10.6688 9.66186 10.0816 9.46611L3.07489 7.13053Z" fill="#95642A"/>
<path d="M18.6832 9.34717C18.0638 9.34717 17.4697 9.59324 17.0317 10.0312C16.5937 10.4693 16.3477 11.0633 16.3477 11.6828V21.0251C16.3477 21.6445 16.5937 22.2386 17.0317 22.6766C17.4697 23.1146 18.0638 23.3607 18.6832 23.3607C19.3027 23.3607 19.8967 23.1146 20.3347 22.6766C20.7728 22.2386 21.0188 21.6445 21.0188 21.0251V11.6828C21.0188 11.0633 20.7728 10.4693 20.3347 10.0312C19.8967 9.59324 19.3027 9.34717 18.6832 9.34717Z" fill="#95642A"/>
<path d="M2.40234 23.359L9.34334 21.0234L2.40234 23.359Z" fill="#95642A"/>
<path d="M8.60074 18.8082L1.65785 21.1438C1.36691 21.2416 1.0981 21.3958 0.866788 21.5975C0.635477 21.7993 0.446181 22.0447 0.309764 22.3196C0.173347 22.5946 0.0924612 22.8937 0.0717361 23.1999C0.051011 23.5062 0.0908592 23.8135 0.188986 24.1043C0.28678 24.3953 0.440976 24.6641 0.642731 24.8954C0.844486 25.1267 1.08984 25.316 1.3648 25.4524C1.63975 25.5888 1.93889 25.6697 2.24513 25.6904C2.55137 25.7112 2.85869 25.6713 3.14952 25.5732L10.0878 23.2376C10.3788 23.1398 10.6476 22.9856 10.8789 22.7839C11.1102 22.5821 11.2995 22.3368 11.4359 22.0618C11.5724 21.7868 11.6532 21.4877 11.674 21.1815C11.6947 20.8752 11.6548 20.5679 11.5567 20.2771C11.3592 19.6906 10.9369 19.2064 10.3826 18.931C9.82841 18.6556 9.18752 18.6114 8.60074 18.8082Z" fill="#95642A"/>
<path d="M26.9501 2.30117e-05C26.6173 -0.00145405 26.2881 0.0681914 25.9844 0.204294C25.6808 0.340397 25.4096 0.539816 25.1893 0.789195L16.9326 10.1361C16.635 10.4732 16.4409 10.8891 16.3738 11.3338C16.3067 11.7785 16.3694 12.2331 16.5544 12.643C16.7394 13.0529 17.0387 13.4007 17.4165 13.6447C17.7944 13.8886 18.2346 14.0183 18.6843 14.0181H35.0334C35.4818 14.0186 35.9208 13.89 36.298 13.6478C36.6753 13.4056 36.9749 13.0599 37.161 12.6521C37.3471 12.2442 37.412 11.7914 37.3477 11.3477C37.2835 10.904 37.0929 10.4881 36.7988 10.1498L28.7018 0.807442C28.4842 0.555891 28.2153 0.353729 27.9132 0.214482C27.6111 0.0752365 27.2827 0.00211866 26.9501 2.30117e-05ZM26.9181 5.8846L29.9197 9.34692H23.8618L26.9181 5.8846Z" fill="#95642A"/>
<path d="M35.0329 9.34717C34.4134 9.34717 33.8193 9.59324 33.3813 10.0312C32.9433 10.4693 32.6973 11.0633 32.6973 11.6828V21.0251C32.6973 21.6445 32.9433 22.2386 33.3813 22.6766C33.8193 23.1146 34.4134 23.3607 35.0329 23.3607C35.6523 23.3607 36.2464 23.1146 36.6844 22.6766C37.1224 22.2386 37.3684 21.6445 37.3684 21.0251V11.6828C37.3684 11.0633 37.1224 10.4693 36.6844 10.0312C36.2464 9.59324 35.6523 9.34717 35.0329 9.34717Z" fill="#95642A"/>
<path d="M44.3789 11.6808L51.6643 9.34521L44.3789 11.6808Z" fill="#95642A"/>
<path d="M50.9519 7.12156L43.6669 9.45714C43.3744 9.55042 43.1032 9.70044 42.8688 9.89861C42.6344 10.0968 42.4413 10.3392 42.3007 10.6121C42.16 10.8849 42.0745 11.1828 42.049 11.4887C42.0236 11.7946 42.0587 12.1025 42.1524 12.3949C42.2461 12.6869 42.3965 12.9576 42.5948 13.1916C42.7932 13.4255 43.0357 13.6181 43.3085 13.7583C43.5813 13.8985 43.8791 13.9836 44.1848 14.0087C44.4905 14.0339 44.7981 13.9985 45.0901 13.9048L52.3751 11.5692C52.6676 11.4759 52.9388 11.3259 53.1732 11.1277C53.4077 10.9296 53.6007 10.6871 53.7414 10.4143C53.882 10.1414 53.9675 9.84355 53.993 9.53764C54.0184 9.23173 53.9833 8.9238 53.8896 8.63148C53.7959 8.33944 53.6455 8.06872 53.4472 7.83479C53.2488 7.60086 53.0063 7.40829 52.7335 7.26808C52.4607 7.12787 52.1629 7.04276 51.8572 7.01762C51.5516 6.99248 51.2439 7.0278 50.9519 7.12156Z" fill="#95642A"/>
<path d="M51.3837 23.3585L44.377 21.0229L51.3837 23.3585Z" fill="#95642A"/>
<path d="M45.1159 18.8083C44.8248 18.711 44.5173 18.6721 44.2112 18.6938C43.905 18.7155 43.6061 18.7973 43.3316 18.9346C43.057 19.0718 42.8123 19.2619 42.6112 19.4938C42.4102 19.7257 42.2568 19.995 42.1599 20.2863C41.965 20.8736 42.0111 21.5144 42.2882 22.0678C42.5653 22.6212 43.0508 23.0419 43.6379 23.2377L50.6447 25.5732C50.9358 25.6705 51.2432 25.7094 51.5494 25.6877C51.8556 25.666 52.1545 25.5842 52.429 25.4469C52.7035 25.3097 52.9483 25.1197 53.1494 24.8877C53.3504 24.6558 53.5037 24.3865 53.6006 24.0953C53.7956 23.5079 53.7495 22.8671 53.4723 22.3137C53.1952 21.7604 52.7098 21.3396 52.1227 21.1438L45.1159 18.8083Z" fill="#95642A"/>
<path d="M15.277 18.689C14.6576 18.689 14.0635 18.9351 13.6255 19.3731C13.1876 19.8111 12.9415 20.4051 12.9414 21.0246V30.3669C12.9415 30.9863 13.1876 31.5803 13.6255 32.0183C14.0635 32.4563 14.6576 32.7024 15.277 32.7025H38.6328C38.9395 32.7025 39.2432 32.6421 39.5266 32.5247C39.81 32.4073 40.0675 32.2353 40.2843 32.0184C40.5012 31.8015 40.6733 31.544 40.7906 31.2607C40.908 30.9773 40.9684 30.6736 40.9684 30.3669V21.0246C40.9684 20.4051 40.7223 19.8111 40.2843 19.3731C39.8463 18.9351 39.2522 18.689 38.6328 18.689H15.277ZM17.6126 23.3601H36.2972V28.0313H17.6126V23.3601Z" fill="#95642A"/>
<path d="M16.3477 63.0634L18.6832 30.3652L16.3477 63.0634Z" fill="#95642A"/>
<path d="M18.8484 28.0362C18.2308 27.9922 17.6211 28.1953 17.1532 28.6008C16.6853 29.0062 16.3976 29.5809 16.3532 30.1984L14.0176 62.8966C13.9959 63.2027 14.0347 63.5102 14.1318 63.8013C14.229 64.0924 14.3826 64.3616 14.5838 64.5933C14.785 64.825 15.03 65.0148 15.3046 65.1519C15.5793 65.2889 15.8782 65.3704 16.1844 65.3918C16.8019 65.4357 17.4117 65.2327 17.8796 64.8272C18.3475 64.4218 18.6352 63.8471 18.6796 63.2296L21.0152 30.5314C21.0369 30.2253 20.9981 29.9178 20.901 29.6267C20.8038 29.3356 20.6502 29.0664 20.449 28.8347C20.2478 28.6029 20.0028 28.4131 19.7282 28.2761C19.4535 28.1391 19.1546 28.0576 18.8484 28.0362Z" fill="#95642A"/>
<path d="M35.0332 30.3652L37.3688 63.0634L35.0332 30.3652Z" fill="#95642A"/>
<path d="M34.8699 28.0362C34.5638 28.0576 34.2648 28.1391 33.9902 28.2761C33.7155 28.4131 33.4706 28.6029 33.2693 28.8347C33.0681 29.0664 32.9145 29.3356 32.8174 29.6267C32.7202 29.9178 32.6814 30.2253 32.7031 30.5314L35.0387 63.2296C35.0831 63.8471 35.3709 64.4218 35.8388 64.8272C36.3066 65.2327 36.9164 65.4357 37.534 65.3918C37.8401 65.3704 38.1391 65.2889 38.4137 65.1519C38.6884 65.0148 38.9333 64.825 39.1345 64.5933C39.3358 64.3616 39.4893 64.0924 39.5865 63.8013C39.6837 63.5102 39.7225 63.2027 39.7008 62.8966L37.3652 30.1984C37.3208 29.5809 37.033 29.0062 36.5651 28.6008C36.0972 28.1953 35.4875 27.9922 34.8699 28.0362Z" fill="#95642A"/>
<path d="M5.91762 60.729C5.29818 60.729 4.70411 60.9751 4.26611 61.4131C3.8281 61.8511 3.58203 62.4452 3.58203 63.0646C3.58203 63.684 3.8281 64.2781 4.26611 64.7161C4.70411 65.1541 5.29818 65.4002 5.91762 65.4002H47.9581C48.5776 65.4002 49.1716 65.1541 49.6096 64.7161C50.0476 64.2781 50.2937 63.684 50.2937 63.0646C50.2937 62.4452 50.0476 61.8511 49.6096 61.4131C49.1716 60.9751 48.5776 60.729 47.9581 60.729H5.91762Z" fill="#95642A"/>
</svg>
