<?xml version="1.0" encoding="UTF-8" standalone="no"?>
<svg
   width="589.37256"
   height="157.58568"
   viewBox="0 0 589.37256 157.58568"
   fill="none"
   version="1.1"
   id="svg24"
   sodipodi:docname="logo-tagline.svg"
   inkscape:version="1.3.2 (091e20ef0f, 2023-11-25)"
   xmlns:inkscape="http://www.inkscape.org/namespaces/inkscape"
   xmlns:sodipodi="http://sodipodi.sourceforge.net/DTD/sodipodi-0.dtd"
   xmlns="http://www.w3.org/2000/svg"
   xmlns:svg="http://www.w3.org/2000/svg">
  <sodipodi:namedview
     id="namedview24"
     pagecolor="#ffffff"
     bordercolor="#000000"
     borderopacity="0.25"
     inkscape:showpageshadow="2"
     inkscape:pageopacity="0.0"
     inkscape:pagecheckerboard="0"
     inkscape:deskcolor="#d1d1d1"
     inkscape:zoom="0.91292135"
     inkscape:cx="356"
     inkscape:cy="121.58769"
     inkscape:current-layer="svg24" />
  <g
     filter="url(#filter0_d_1152_78)"
     id="g19">
    <g
       clip-path="url(#clip0_1152_78)"
       id="g18">
      <path
         d="M 134.86,20 H 25 v 109.86 h 109.86 z"
         fill="url(#paint0_linear_1152_78)"
         id="path1"
         style="fill:url(#paint0_linear_1152_78)" />
      <path
         d="m 49.5508,46.9766 8.4589,2.8197 z"
         fill="#95642a"
         id="path2" />
      <path
         d="M 50.4427,44.3024 C 50.0912,44.185 49.72,44.1381 49.3504,44.1642 c -0.3696,0.0262 -0.7305,0.125 -1.0619,0.2907 -0.3314,0.1657 -0.6269,0.3951 -0.8697,0.6751 -0.2427,0.28 -0.4278,0.6051 -0.5448,0.9567 -0.2353,0.7091 -0.1796,1.4827 0.1549,2.1508 0.3346,0.668 0.9206,1.176 1.6294,1.4123 l 8.459,2.8197 c 0.3515,0.1174 0.7226,0.1643 1.0923,0.1381 0.3696,-0.0261 0.7304,-0.1249 1.0618,-0.2906 0.3315,-0.1657 0.627,-0.3951 0.8697,-0.6751 0.2427,-0.28 0.4278,-0.6051 0.5448,-0.9567 0.2354,-0.7092 0.1797,-1.4827 -0.1549,-2.1508 -0.3345,-0.6681 -0.9206,-1.176 -1.6294,-1.4123 z"
         fill="#95642a"
         id="path3" />
      <path
         d="m 69.2865,46.9789 c -0.7479,0 -1.4651,0.297 -1.9938,0.8258 -0.5288,0.5288 -0.8259,1.246 -0.8259,1.9938 v 11.2786 c 0,0.7478 0.2971,1.465 0.8259,1.9938 0.5287,0.5288 1.2459,0.8259 1.9938,0.8259 0.7478,0 1.465,-0.2971 1.9937,-0.8259 0.5288,-0.5288 0.8259,-1.246 0.8259,-1.9938 V 49.7985 c 0,-0.7478 -0.2971,-1.465 -0.8259,-1.9938 -0.5287,-0.5288 -1.2459,-0.8258 -1.9937,-0.8258 z"
         fill="#95642a"
         id="path4" />
      <path
         d="m 49.6309,63.8945 8.3795,-2.8197 z"
         fill="#95642a"
         id="path5" />
      <path
         d="m 57.1137,58.4006 -8.3819,2.8197 c -0.3512,0.1181 -0.6757,0.3042 -0.955,0.5478 -0.2792,0.2435 -0.5078,0.5398 -0.6725,0.8717 -0.1646,0.3319 -0.2623,0.6931 -0.2873,1.0628 -0.025,0.3697 0.0231,0.7407 0.1415,1.0918 0.1181,0.3513 0.3042,0.6758 0.5478,0.955 0.2436,0.2793 0.5398,0.5078 0.8717,0.6725 0.332,0.1647 0.6931,0.2623 1.0628,0.2874 0.3697,0.025 0.7408,-0.0231 1.0919,-0.1416 l 8.3763,-2.8196 c 0.3513,-0.1181 0.6758,-0.3042 0.955,-0.5478 0.2793,-0.2436 0.5078,-0.5398 0.6725,-0.8717 0.1647,-0.332 0.2623,-0.6931 0.2874,-1.0628 0.025,-0.3697 -0.0231,-0.7408 -0.1416,-1.0919 -0.2385,-0.708 -0.7483,-1.2925 -1.4174,-1.625 -0.6691,-0.3325 -1.4428,-0.3858 -2.1512,-0.1483 z"
         fill="#95642a"
         id="path6" />
      <path
         d="m 79.2667,35.6942 c -0.4017,-0.0018 -0.7992,0.0823 -1.1658,0.2466 -0.3666,0.1643 -0.6939,0.4051 -0.96,0.7061 L 67.173,47.9311 c -0.3594,0.4069 -0.5936,0.909 -0.6746,1.4459 -0.081,0.5368 -0.0053,1.0857 0.218,1.5805 0.2233,0.4949 0.5847,0.9148 1.0408,1.2093 0.4562,0.2945 0.9876,0.451 1.5306,0.4508 h 19.7375 c 0.5413,6e-4 1.0713,-0.1545 1.5267,-0.447 0.4555,-0.2924 0.8171,-0.7097 1.0419,-1.2021 0.2247,-0.4924 0.3029,-1.0391 0.2254,-1.5747 -0.0775,-0.5357 -0.3076,-1.0377 -0.6627,-1.4462 L 81.3814,36.669 c -0.2627,-0.3037 -0.5873,-0.5478 -0.952,-0.7159 -0.3647,-0.1681 -0.7611,-0.2564 -1.1627,-0.2589 z m -0.0386,7.1042 3.6237,4.1799 h -7.3135 z"
         fill="#95642a"
         id="path7" />
      <path
         d="m 89.0228,46.9787 c -0.7478,0 -1.465,0.2971 -1.9938,0.8259 -0.5288,0.5288 -0.8259,1.246 -0.8259,1.9938 V 61.077 c 0,0.7478 0.2971,1.465 0.8259,1.9938 0.5288,0.5288 1.246,0.8259 1.9938,0.8259 0.7478,0 1.465,-0.2971 1.9938,-0.8259 0.5288,-0.5288 0.8258,-1.246 0.8258,-1.9938 V 49.7984 c 0,-0.7478 -0.297,-1.465 -0.8258,-1.9938 -0.5288,-0.5288 -1.246,-0.8259 -1.9938,-0.8259 z"
         fill="#95642a"
         id="path8" />
      <path
         d="m 100.307,49.7957 8.795,-2.8196 z"
         fill="#95642a"
         id="path9" />
      <path
         d="m 108.242,44.2918 -8.7948,2.8196 c -0.353,0.1126 -0.6805,0.2937 -0.9635,0.533 -0.283,0.2392 -0.5161,0.5319 -0.6859,0.8613 -0.1698,0.3294 -0.273,0.689 -0.3037,1.0584 -0.0307,0.3693 0.0117,0.741 0.1247,1.0939 0.1132,0.3526 0.2947,0.6794 0.5342,0.9618 0.2395,0.2824 0.5323,0.5149 0.8616,0.6842 0.3293,0.1693 0.6888,0.272 1.0574,0.3024 0.369,0.0303 0.741,-0.0123 1.093,-0.1255 l 8.795,-2.8197 c 0.353,-0.1126 0.681,-0.2937 0.964,-0.5329 0.283,-0.2393 0.516,-0.532 0.686,-0.8614 0.17,-0.3293 0.273,-0.689 0.303,-1.0583 0.031,-0.3693 -0.011,-0.741 -0.124,-1.094 -0.113,-0.3525 -0.295,-0.6794 -0.534,-0.9618 -0.24,-0.2824 -0.533,-0.5149 -0.862,-0.6841 -0.329,-0.1693 -0.689,-0.272 -1.058,-0.3024 -0.369,-0.0303 -0.74,0.0123 -1.093,0.1255 z"
         fill="#95642a"
         id="path10" />
      <path
         d="m 108.764,63.893 -8.459,-2.8197 z"
         fill="#95642a"
         id="path11" />
      <path
         d="m 101.197,58.4 c -0.352,-0.1173 -0.723,-0.1643 -1.093,-0.1381 -0.3693,0.0261 -0.7302,0.1249 -1.0616,0.2906 -0.3314,0.1657 -0.6269,0.3951 -0.8696,0.6751 -0.2428,0.28 -0.4279,0.6051 -0.5449,0.9567 -0.2353,0.7092 -0.1796,1.4827 0.1549,2.1508 0.3346,0.6681 0.9206,1.176 1.6294,1.4124 l 8.4588,2.8196 c 0.352,0.1174 0.723,0.1643 1.092,0.1382 0.37,-0.0262 0.731,-0.1249 1.062,-0.2907 0.332,-0.1657 0.627,-0.3951 0.87,-0.6751 0.243,-0.28 0.428,-0.6051 0.545,-0.9567 0.235,-0.7091 0.179,-1.4827 -0.155,-2.1507 -0.335,-0.6681 -0.921,-1.1761 -1.629,-1.4124 z"
         fill="#95642a"
         id="path12" />
      <path
         d="m 65.1732,58.2563 c -0.7478,10e-5 -1.465,0.2971 -1.9937,0.8259 -0.5288,0.5288 -0.8259,1.2459 -0.826,1.9937 v 11.2786 c 1e-4,0.7478 0.2972,1.465 0.826,1.9938 0.5287,0.5287 1.2459,0.8258 1.9937,0.8259 h 28.1965 c 0.3703,0 0.7369,-0.0729 1.079,-0.2146 0.3421,-0.1417 0.653,-0.3494 0.9148,-0.6113 0.2618,-0.2618 0.4695,-0.5726 0.6112,-0.9147 0.1417,-0.3421 0.2147,-0.7088 0.2147,-1.0791 V 61.0759 c -1e-4,-0.7478 -0.2972,-1.4649 -0.826,-1.9937 -0.5288,-0.5288 -1.2459,-0.8258 -1.9937,-0.8259 z m 2.8196,5.6393 H 90.55 v 5.6393 H 67.9928 Z"
         fill="#95642a"
         id="path13" />
      <path
         d="M 66.4668,111.827 69.2865,72.3523 Z"
         fill="#95642a"
         id="path14" />
      <path
         d="m 69.4856,69.5408 c -0.7455,-0.053 -1.4817,0.1922 -2.0465,0.6817 -0.5649,0.4894 -0.9123,1.1832 -0.9659,1.9287 l -2.8196,39.4748 c -0.0263,0.37 0.0206,0.741 0.1379,1.093 0.1173,0.351 0.3027,0.676 0.5456,0.956 0.243,0.279 0.5387,0.509 0.8702,0.674 0.3316,0.165 0.6925,0.264 1.0621,0.29 0.7456,0.053 1.4817,-0.192 2.0466,-0.682 0.5649,-0.489 0.9123,-1.183 0.9659,-1.929 L 72.1015,72.5532 C 72.1277,72.1836 72.0809,71.8125 71.9636,71.461 71.8463,71.1095 71.6609,70.7846 71.4179,70.5048 71.175,70.2251 70.8793,69.9959 70.5477,69.8305 70.2162,69.6651 69.8552,69.5667 69.4856,69.5408 Z"
         fill="#95642a"
         id="path15" />
      <path
         d="m 89.0234,72.3521 2.8197,39.4749 z"
         fill="#95642a"
         id="path16" />
      <path
         d="m 88.8261,69.5407 c -0.3696,0.0259 -0.7306,0.1243 -1.0621,0.2897 -0.3316,0.1654 -0.6273,0.3946 -0.8702,0.6744 -0.243,0.2797 -0.4284,0.6046 -0.5457,0.9561 -0.1173,0.3515 -0.1641,0.7226 -0.1379,1.0922 l 2.8197,39.4749 c 0.0535,0.746 0.4009,1.44 0.9658,1.929 0.5649,0.489 1.301,0.735 2.0466,0.682 0.3696,-0.026 0.7305,-0.125 1.0621,-0.29 0.3315,-0.165 0.6272,-0.395 0.8702,-0.674 0.2429,-0.28 0.4283,-0.605 0.5456,-0.957 0.1173,-0.351 0.1642,-0.722 0.1379,-1.092 L 91.8385,72.1511 c -0.0536,-0.7455 -0.401,-1.4393 -0.9659,-1.9287 -0.5648,-0.4895 -1.301,-0.7347 -2.0465,-0.6817 z"
         fill="#95642a"
         id="path17" />
      <path
         d="m 53.8743,109.01 c -0.7478,0 -1.465,0.297 -1.9938,0.826 -0.5287,0.529 -0.8258,1.246 -0.8258,1.994 0,0.748 0.2971,1.465 0.8258,1.994 0.5288,0.528 1.246,0.825 1.9938,0.825 h 50.7537 c 0.748,0 1.465,-0.297 1.994,-0.825 0.529,-0.529 0.826,-1.246 0.826,-1.994 0,-0.748 -0.297,-1.465 -0.826,-1.994 -0.529,-0.529 -1.246,-0.826 -1.994,-0.826 z"
         fill="#95642a"
         id="path18" />
    </g>
  </g>
  <path
     d="M 173.292,93.9741 V 60.1709 h 16.516 c 2.285,0 4.297,0.4507 6.036,1.3521 1.771,0.8692 3.139,2.0926 4.105,3.6701 0.998,1.5774 1.497,3.3964 1.497,5.4568 0,2.1569 -0.596,4.0564 -1.787,5.6982 -1.191,1.6419 -2.785,2.8653 -4.781,3.6701 l 7.485,13.9559 h -7.823 l -6.616,-12.9418 h -7.63 v 12.9418 z m 7.002,-18.6884 h 8.886 c 1.577,0 2.833,-0.4185 3.766,-1.2555 0.966,-0.837 1.449,-1.9316 1.449,-3.2837 0,-1.3522 -0.483,-2.4468 -1.449,-3.2838 -0.933,-0.837 -2.189,-1.2555 -3.766,-1.2555 h -8.886 z m 36.191,19.1713 c -2.511,0 -4.797,-0.5795 -6.857,-1.7385 -2.028,-1.1589 -3.638,-2.7203 -4.829,-4.6841 -1.191,-1.9638 -1.787,-4.1691 -1.787,-6.6158 0,-2.4467 0.563,-4.652 1.69,-6.6158 1.159,-1.9638 2.72,-3.5252 4.684,-4.6841 1.964,-1.159 4.153,-1.7385 6.568,-1.7385 2.414,0 4.555,0.5956 6.422,1.7868 1.868,1.1911 3.332,2.8008 4.395,4.829 1.094,2.0282 1.642,4.33 1.642,6.9055 V 83.64 h -18.64 c 0.289,0.998 0.756,1.8994 1.4,2.7042 0.676,0.8049 1.497,1.4326 2.463,1.8833 0.998,0.4508 2.06,0.6761 3.187,0.6761 1.127,0 2.157,-0.1771 3.091,-0.5312 0.965,-0.3541 1.786,-0.8531 2.462,-1.497 l 4.347,3.9598 c -1.546,1.2556 -3.139,2.1731 -4.781,2.7526 -1.61,0.5795 -3.429,0.8692 -5.457,0.8692 z m -6.809,-15.5495 h 12.217 c -0.225,-0.998 -0.643,-1.8672 -1.255,-2.6077 -0.58,-0.7726 -1.288,-1.3682 -2.125,-1.7867 -0.805,-0.4507 -1.706,-0.6761 -2.704,-0.6761 -1.03,0 -1.964,0.2093 -2.801,0.6278 -0.837,0.4185 -1.545,1.0141 -2.125,1.7867 -0.547,0.7405 -0.949,1.6258 -1.207,2.656 z m 35.293,15.5495 c -2.511,0 -4.797,-0.5795 -6.858,-1.7385 -2.028,-1.1589 -3.637,-2.7203 -4.829,-4.6841 -1.191,-1.9638 -1.786,-4.1691 -1.786,-6.6158 0,-2.4467 0.563,-4.652 1.69,-6.6158 1.159,-1.9638 2.72,-3.5252 4.684,-4.6841 1.964,-1.159 4.153,-1.7385 6.568,-1.7385 2.414,0 4.555,0.5956 6.422,1.7868 1.867,1.1911 3.332,2.8008 4.395,4.829 1.094,2.0282 1.641,4.33 1.641,6.9055 V 83.64 h -18.64 c 0.29,0.998 0.757,1.8994 1.401,2.7042 0.676,0.8049 1.497,1.4326 2.463,1.8833 0.998,0.4508 2.06,0.6761 3.187,0.6761 1.127,0 2.157,-0.1771 3.09,-0.5312 0.966,-0.3541 1.787,-0.8531 2.463,-1.497 l 4.346,3.9598 c -1.545,1.2556 -3.139,2.1731 -4.78,2.7526 -1.61,0.5795 -3.429,0.8692 -5.457,0.8692 z M 238.16,78.9075 h 12.217 c -0.225,-0.998 -0.644,-1.8672 -1.255,-2.6077 -0.58,-0.7726 -1.288,-1.3682 -2.125,-1.7867 -0.805,-0.4507 -1.706,-0.6761 -2.704,-0.6761 -1.031,0 -1.964,0.2093 -2.801,0.6278 -0.837,0.4185 -1.545,1.0141 -2.125,1.7867 -0.547,0.7405 -0.95,1.6258 -1.207,2.656 z m 22.79,15.0666 V 68.8148 h 6.616 v 2.0765 c 1.899,-1.7062 4.249,-2.5594 7.05,-2.5594 1.964,0 3.686,0.4346 5.167,1.3039 1.513,0.837 2.688,2.0121 3.525,3.5252 0.837,1.4809 1.256,3.2193 1.256,5.2153 v 15.5978 h -6.616 v -14.632 c 0,-1.6418 -0.467,-2.9296 -1.4,-3.8632 -0.934,-0.9658 -2.206,-1.4487 -3.815,-1.4487 -1.127,0 -2.125,0.2253 -2.994,0.6761 -0.87,0.4185 -1.594,1.0302 -2.173,1.835 v 17.4328 z m 39.845,0.3863 c -2.8,0 -4.925,-0.6278 -6.374,-1.8833 -1.416,-1.2877 -2.125,-3.155 -2.125,-5.6017 V 74.3199 h -5.167 v -5.5051 h 5.167 v -6.4226 l 6.616,-1.497 v 7.9196 h 7.195 v 5.5051 h -7.195 v 11.2034 c 0,1.159 0.258,1.996 0.773,2.5111 0.515,0.4829 1.416,0.7243 2.704,0.7243 0.644,0 1.223,-0.0322 1.738,-0.0965 0.548,-0.0966 1.143,-0.2576 1.787,-0.4829 v 5.4568 c -0.676,0.2253 -1.529,0.4024 -2.559,0.5312 -0.998,0.1287 -1.851,0.1931 -2.56,0.1931 z m 8.539,-0.3863 V 68.8148 h 6.616 v 2.8009 c 0.805,-1.0946 1.771,-1.9316 2.898,-2.5111 1.126,-0.5795 2.398,-0.8692 3.815,-0.8692 1.223,0.0321 2.14,0.2253 2.752,0.5794 v 5.7949 c -0.483,-0.2254 -1.014,-0.3863 -1.593,-0.4829 -0.58,-0.1288 -1.176,-0.1932 -1.787,-0.1932 -1.288,0 -2.463,0.3219 -3.525,0.9658 -1.063,0.6439 -1.916,1.5614 -2.56,2.7526 v 16.3221 z m 22.647,10.3829 c -0.579,0 -1.143,-0.033 -1.69,-0.097 -0.515,-0.032 -0.95,-0.081 -1.304,-0.145 v -5.6982 c 0.644,0.1288 1.417,0.1932 2.318,0.1932 2.415,0 4.089,-1.1429 5.022,-3.4286 l 0.387,-0.9659 -9.803,-25.4007 h 7.291 l 6.278,17.1431 7.099,-17.1431 h 7.147 l -11.59,27.1875 c -0.869,2.0282 -1.819,3.654 -2.849,4.8777 -1.03,1.223 -2.221,2.108 -3.573,2.656 -1.32,0.547 -2.898,0.821 -4.733,0.821 z m 42.454,-9.8517 c -2.511,0 -4.845,-0.4346 -7.002,-1.3038 -2.157,-0.9015 -4.056,-2.1409 -5.698,-3.7184 -1.642,-1.6097 -2.93,-3.4608 -3.863,-5.5534 -0.902,-2.1248 -1.352,-4.4105 -1.352,-6.8572 0,-2.4467 0.45,-4.7164 1.352,-6.809 0.933,-2.1247 2.205,-3.9759 3.815,-5.5533 1.609,-1.6097 3.493,-2.8492 5.65,-3.7184 2.189,-0.9014 4.523,-1.3521 7.002,-1.3521 2.801,0 5.441,0.5634 7.919,1.6901 2.479,1.0946 4.524,2.6399 6.133,4.6359 l -4.877,4.491 c -1.159,-1.4487 -2.527,-2.5433 -4.105,-3.2837 -1.577,-0.7405 -3.267,-1.1107 -5.07,-1.1107 -1.513,0 -2.914,0.2897 -4.201,0.8692 -1.288,0.5473 -2.415,1.3199 -3.381,2.318 -0.966,0.9658 -1.722,2.1247 -2.269,3.4769 -0.515,1.3199 -0.773,2.7686 -0.773,4.3461 0,1.5775 0.274,3.0423 0.821,4.3944 0.547,1.3521 1.304,2.5272 2.27,3.5252 0.998,0.9658 2.14,1.7384 3.428,2.3179 1.32,0.5473 2.753,0.821 4.298,0.821 1.61,0 3.058,-0.2898 4.346,-0.8693 1.288,-0.6116 2.366,-1.4487 3.236,-2.5111 0.901,-1.0945 1.497,-2.3179 1.786,-3.67 h -9.996 V 74.996 h 17.481 v 2.1248 c 0,2.5111 -0.434,4.829 -1.303,6.9538 -0.838,2.0926 -2.013,3.9276 -3.526,5.5051 -1.513,1.5453 -3.3,2.7525 -5.36,3.6218 -2.06,0.8692 -4.314,1.3038 -6.761,1.3038 z m 31.048,-0.0483 c -1.931,0 -3.653,-0.4185 -5.167,-1.2555 -1.48,-0.8693 -2.656,-2.0604 -3.525,-3.5735 -0.837,-1.5131 -1.255,-3.2516 -1.255,-5.2154 V 68.8148 h 6.615 v 14.632 c 0,1.6097 0.467,2.8974 1.401,3.8632 0.966,0.9658 2.253,1.4487 3.863,1.4487 1.095,0 2.077,-0.2092 2.946,-0.6277 0.901,-0.4507 1.642,-1.0785 2.221,-1.8834 V 68.8148 h 6.616 v 25.1593 h -6.616 v -2.0282 c -1.931,1.6741 -4.298,2.5111 -7.099,2.5111 z m 18.871,-0.4829 V 68.8148 h 6.616 v 25.1593 z m 3.284,-28.1533 c -1.03,0 -1.916,-0.3702 -2.656,-1.1106 -0.741,-0.7405 -1.111,-1.6258 -1.111,-2.656 0,-1.0624 0.37,-1.9477 1.111,-2.656 0.74,-0.7404 1.626,-1.1107 2.656,-1.1107 1.062,0 1.948,0.3703 2.656,1.1107 0.74,0.7083 1.11,1.5936 1.11,2.656 0,1.0302 -0.37,1.9155 -1.11,2.656 -0.708,0.7404 -1.594,1.1106 -2.656,1.1106 z m 20.144,28.4913 c -2.383,0 -4.54,-0.5795 -6.471,-1.7384 -1.932,-1.159 -3.477,-2.7043 -4.636,-4.6359 -1.127,-1.9638 -1.69,-4.153 -1.69,-6.5675 0,-2.4145 0.563,-4.5876 1.69,-6.5192 1.159,-1.9638 2.72,-3.5091 4.684,-4.6358 1.964,-1.159 4.169,-1.7385 6.616,-1.7385 1.255,0 2.463,0.1771 3.622,0.5312 1.159,0.3219 2.237,0.8048 3.235,1.4487 V 60.1709 l 6.616,-1.1107 v 34.9139 h -6.519 v -2.0765 c -2.061,1.6097 -4.443,2.4145 -7.147,2.4145 z m 1.062,-5.6499 c 1.223,0 2.334,-0.1932 3.332,-0.5795 1.03,-0.4185 1.916,-1.0302 2.656,-1.8351 v -9.8029 c -0.74,-0.7404 -1.626,-1.3199 -2.656,-1.7384 -1.03,-0.4186 -2.141,-0.6278 -3.332,-0.6278 -1.384,0 -2.64,0.3219 -3.767,0.9658 -1.094,0.6117 -1.963,1.4809 -2.607,2.6077 -0.644,1.0945 -0.966,2.334 -0.966,3.7183 0,1.3843 0.322,2.6238 0.966,3.7184 0.644,1.0946 1.513,1.9638 2.607,2.6077 1.127,0.6438 2.383,0.9658 3.767,0.9658 z m 30.078,5.7948 c -2.511,0 -4.797,-0.5795 -6.857,-1.7385 -2.028,-1.1589 -3.638,-2.7203 -4.829,-4.6841 -1.191,-1.9638 -1.787,-4.1691 -1.787,-6.6158 0,-2.4467 0.564,-4.652 1.69,-6.6158 1.159,-1.9638 2.721,-3.5252 4.684,-4.6841 1.964,-1.159 4.153,-1.7385 6.568,-1.7385 2.414,0 4.555,0.5956 6.423,1.7868 1.867,1.1911 3.332,2.8008 4.394,4.829 1.095,2.0282 1.642,4.33 1.642,6.9055 V 83.64 h -18.64 c 0.29,0.998 0.756,1.8994 1.4,2.7042 0.676,0.8049 1.497,1.4326 2.463,1.8833 0.998,0.4508 2.06,0.6761 3.187,0.6761 1.127,0 2.157,-0.1771 3.091,-0.5312 0.966,-0.3541 1.786,-0.8531 2.463,-1.497 l 4.346,3.9598 c -1.546,1.2556 -3.139,2.1731 -4.781,2.7526 -1.61,0.5795 -3.429,0.8692 -5.457,0.8692 z m -6.809,-15.5495 h 12.218 c -0.226,-0.998 -0.644,-1.8672 -1.256,-2.6077 -0.579,-0.7726 -1.288,-1.3682 -2.125,-1.7867 -0.805,-0.4507 -1.706,-0.6761 -2.704,-0.6761 -1.03,0 -1.964,0.2093 -2.801,0.6278 -0.837,0.4185 -1.545,1.0141 -2.125,1.7867 -0.547,0.7405 -0.949,1.6258 -1.207,2.656 z m 49.551,15.5978 c -2.511,0 -4.845,-0.4346 -7.002,-1.3038 -2.157,-0.9015 -4.056,-2.1409 -5.698,-3.7184 -1.642,-1.6097 -2.93,-3.4608 -3.863,-5.5534 -0.902,-2.1248 -1.352,-4.4105 -1.352,-6.8572 0,-2.4467 0.45,-4.7164 1.352,-6.809 0.933,-2.1247 2.205,-3.9759 3.815,-5.5533 1.609,-1.6097 3.493,-2.8492 5.65,-3.7184 2.189,-0.9014 4.523,-1.3521 7.002,-1.3521 2.801,0 5.44,0.5634 7.919,1.6901 2.479,1.0946 4.524,2.6399 6.133,4.6359 l -4.877,4.491 c -1.159,-1.4487 -2.527,-2.5433 -4.105,-3.2837 -1.577,-0.7405 -3.267,-1.1107 -5.07,-1.1107 -1.513,0 -2.914,0.2897 -4.201,0.8692 -1.288,0.5473 -2.415,1.3199 -3.381,2.318 -0.966,0.9658 -1.722,2.1247 -2.269,3.4769 -0.516,1.3199 -0.773,2.7686 -0.773,4.3461 0,1.5775 0.274,3.0423 0.821,4.3944 0.547,1.3521 1.304,2.5272 2.269,3.5252 0.998,0.9658 2.141,1.7384 3.429,2.3179 1.32,0.5473 2.753,0.821 4.298,0.821 1.61,0 3.058,-0.2898 4.346,-0.8693 1.288,-0.6116 2.366,-1.4487 3.236,-2.5111 0.901,-1.0945 1.497,-2.3179 1.786,-3.67 h -9.996 V 74.996 h 17.481 v 2.1248 c 0,2.5111 -0.434,4.829 -1.304,6.9538 -0.837,2.0926 -2.012,3.9276 -3.525,5.5051 -1.513,1.5453 -3.3,2.7525 -5.36,3.6218 -2.06,0.8692 -4.314,1.3038 -6.761,1.3038 z m 21.728,-0.5312 V 60.1709 h 16.516 c 2.285,0 4.297,0.4507 6.036,1.3521 1.771,0.8692 3.139,2.0926 4.105,3.6701 0.998,1.5774 1.497,3.3964 1.497,5.4568 0,2.1569 -0.596,4.0564 -1.787,5.6982 -1.191,1.6419 -2.785,2.8653 -4.781,3.6701 l 7.485,13.9559 h -7.823 l -6.616,-12.9418 h -7.63 v 12.9418 z m 7.002,-18.6884 h 8.886 c 1.577,0 2.833,-0.4185 3.767,-1.2555 0.965,-0.837 1.448,-1.9316 1.448,-3.2837 0,-1.3522 -0.483,-2.4468 -1.448,-3.2838 -0.934,-0.837 -2.19,-1.2555 -3.767,-1.2555 h -8.886 z"
     fill="#3b342a"
     id="path19" />
  <path
     d="m 175.62,126 v -5.56 L 169.98,112 h 2.44 l 4.3,6.58 4.3,-6.58 h 2.34 l -5.64,8.48 V 126 Z m 11.181,0.2 c -0.986,0 -1.886,-0.233 -2.7,-0.7 -0.8,-0.467 -1.433,-1.1 -1.9,-1.9 -0.466,-0.8 -0.7,-1.693 -0.7,-2.68 0,-0.987 0.234,-1.88 0.7,-2.68 0.467,-0.8 1.1,-1.433 1.9,-1.9 0.814,-0.48 1.714,-0.72 2.7,-0.72 1,0 1.9,0.24 2.7,0.72 0.8,0.467 1.434,1.1 1.9,1.9 0.467,0.8 0.7,1.693 0.7,2.68 0,0.987 -0.233,1.88 -0.7,2.68 -0.466,0.8 -1.1,1.433 -1.9,1.9 -0.8,0.467 -1.7,0.7 -2.7,0.7 z m 0,-1.76 c 0.627,0 1.194,-0.153 1.7,-0.46 0.507,-0.32 0.907,-0.747 1.2,-1.28 0.294,-0.533 0.44,-1.133 0.44,-1.8 0,-0.653 -0.153,-1.24 -0.46,-1.76 -0.293,-0.533 -0.693,-0.96 -1.2,-1.28 -0.493,-0.32 -1.053,-0.48 -1.68,-0.48 -0.626,0 -1.193,0.16 -1.7,0.48 -0.493,0.32 -0.893,0.747 -1.2,1.28 -0.293,0.52 -0.44,1.107 -0.44,1.76 0,0.667 0.147,1.267 0.44,1.8 0.294,0.533 0.694,0.96 1.2,1.28 0.507,0.307 1.074,0.46 1.7,0.46 z m 11.132,1.76 c -0.787,0 -1.48,-0.167 -2.08,-0.5 -0.6,-0.333 -1.067,-0.8 -1.4,-1.4 -0.334,-0.613 -0.5,-1.313 -0.5,-2.1 v -6.38 h 1.98 v 6.04 c 0,0.8 0.226,1.433 0.68,1.9 0.466,0.467 1.086,0.7 1.86,0.7 0.546,0 1.033,-0.113 1.46,-0.34 0.426,-0.24 0.773,-0.573 1.04,-1 v -7.3 h 2 V 126 h -2 v -1.04 c -0.787,0.827 -1.8,1.24 -3.04,1.24 z m 7.407,-0.2 v -10.18 h 2 v 1.3 c 0.32,-0.48 0.713,-0.853 1.18,-1.12 0.48,-0.28 1.02,-0.42 1.62,-0.42 0.413,0.013 0.753,0.073 1.02,0.18 v 1.8 c -0.187,-0.08 -0.38,-0.133 -0.58,-0.16 -0.2,-0.04 -0.4,-0.06 -0.6,-0.06 -0.587,0 -1.107,0.16 -1.56,0.48 -0.453,0.307 -0.813,0.76 -1.08,1.36 V 126 Z m 11.842,0 v -14 h 2.1 v 12.14 h 8.06 V 126 Z m 16.377,0.2 c -0.987,0 -1.887,-0.233 -2.7,-0.7 -0.8,-0.467 -1.433,-1.1 -1.9,-1.9 -0.467,-0.8 -0.7,-1.693 -0.7,-2.68 0,-0.987 0.233,-1.88 0.7,-2.68 0.467,-0.8 1.1,-1.433 1.9,-1.9 0.813,-0.48 1.713,-0.72 2.7,-0.72 1,0 1.9,0.24 2.7,0.72 0.8,0.467 1.433,1.1 1.9,1.9 0.467,0.8 0.7,1.693 0.7,2.68 0,0.987 -0.233,1.88 -0.7,2.68 -0.467,0.8 -1.1,1.433 -1.9,1.9 -0.8,0.467 -1.7,0.7 -2.7,0.7 z m 0,-1.76 c 0.627,0 1.193,-0.153 1.7,-0.46 0.507,-0.32 0.907,-0.747 1.2,-1.28 0.293,-0.533 0.44,-1.133 0.44,-1.8 0,-0.653 -0.153,-1.24 -0.46,-1.76 -0.293,-0.533 -0.693,-0.96 -1.2,-1.28 -0.493,-0.32 -1.053,-0.48 -1.68,-0.48 -0.627,0 -1.193,0.16 -1.7,0.48 -0.493,0.32 -0.893,0.747 -1.2,1.28 -0.293,0.52 -0.44,1.107 -0.44,1.76 0,0.667 0.147,1.267 0.44,1.8 0.293,0.533 0.693,0.96 1.2,1.28 0.507,0.307 1.073,0.46 1.7,0.46 z m 11.971,1.74 c -0.973,0 -1.86,-0.233 -2.66,-0.7 -0.8,-0.467 -1.433,-1.1 -1.9,-1.9 -0.453,-0.8 -0.68,-1.693 -0.68,-2.68 0,-0.987 0.234,-1.873 0.7,-2.66 0.467,-0.8 1.094,-1.433 1.88,-1.9 0.8,-0.48 1.687,-0.72 2.66,-0.72 0.774,0 1.514,0.147 2.22,0.44 0.72,0.293 1.34,0.707 1.86,1.24 l -1.24,1.38 c -0.386,-0.427 -0.82,-0.747 -1.3,-0.96 -0.48,-0.213 -0.98,-0.32 -1.5,-0.32 -0.613,0 -1.173,0.153 -1.68,0.46 -0.493,0.307 -0.886,0.727 -1.18,1.26 -0.293,0.533 -0.44,1.127 -0.44,1.78 0,0.653 0.147,1.247 0.44,1.78 0.294,0.533 0.694,0.96 1.2,1.28 0.507,0.307 1.074,0.46 1.7,0.46 0.52,0 1.007,-0.1 1.46,-0.3 0.454,-0.213 0.88,-0.52 1.28,-0.92 l 1.22,1.28 c -0.533,0.547 -1.153,0.967 -1.86,1.26 -0.693,0.293 -1.42,0.44 -2.18,0.44 z m 8.87,0 c -0.733,0 -1.38,-0.127 -1.94,-0.38 -0.56,-0.267 -1,-0.633 -1.32,-1.1 -0.32,-0.467 -0.48,-1.007 -0.48,-1.62 0,-0.96 0.367,-1.713 1.1,-2.26 0.733,-0.56 1.74,-0.84 3.02,-0.84 1,0 1.927,0.193 2.78,0.58 v -1.08 c 0,-0.733 -0.213,-1.28 -0.64,-1.64 -0.413,-0.36 -1.027,-0.54 -1.84,-0.54 -0.467,0 -0.953,0.073 -1.46,0.22 -0.507,0.133 -1.073,0.347 -1.7,0.64 l -0.74,-1.5 c 0.773,-0.36 1.493,-0.62 2.16,-0.78 0.667,-0.173 1.34,-0.26 2.02,-0.26 1.32,0 2.34,0.313 3.06,0.94 0.733,0.627 1.1,1.52 1.1,2.68 V 126 h -1.96 v -0.88 c -0.453,0.36 -0.94,0.627 -1.46,0.8 -0.52,0.173 -1.087,0.26 -1.7,0.26 z m -1.82,-3.14 c 0,0.493 0.207,0.893 0.62,1.2 0.427,0.293 0.98,0.44 1.66,0.44 0.533,0 1.02,-0.073 1.46,-0.22 0.453,-0.16 0.867,-0.407 1.24,-0.74 V 122 c -0.387,-0.227 -0.793,-0.387 -1.22,-0.48 -0.413,-0.107 -0.88,-0.16 -1.4,-0.16 -0.733,0 -1.313,0.153 -1.74,0.46 -0.413,0.293 -0.62,0.7 -0.62,1.22 z m 9.245,2.96 v -14 l 2,-0.38 V 126 Z m 8.775,0 v -14 h 6.34 c 0.933,0 1.746,0.173 2.44,0.52 0.706,0.347 1.253,0.833 1.64,1.46 0.4,0.613 0.6,1.333 0.6,2.16 0,0.92 -0.26,1.713 -0.78,2.38 -0.52,0.667 -1.22,1.147 -2.1,1.44 l 3.12,6.04 h -2.32 l -2.9,-5.74 H 272.7 V 126 Z m 2.1,-7.5 h 4.08 c 0.826,0 1.486,-0.207 1.98,-0.62 0.506,-0.427 0.76,-1 0.76,-1.72 0,-0.693 -0.254,-1.253 -0.76,-1.68 -0.494,-0.427 -1.154,-0.64 -1.98,-0.64 h -4.08 z m 15.118,7.68 c -1,0 -1.907,-0.233 -2.72,-0.7 -0.8,-0.467 -1.44,-1.1 -1.92,-1.9 -0.467,-0.8 -0.7,-1.693 -0.7,-2.68 0,-0.973 0.226,-1.853 0.68,-2.64 0.453,-0.8 1.066,-1.433 1.84,-1.9 0.773,-0.48 1.633,-0.72 2.58,-0.72 0.946,0 1.786,0.24 2.52,0.72 0.733,0.467 1.313,1.107 1.74,1.92 0.44,0.8 0.66,1.707 0.66,2.72 v 0.56 h -8.02 c 0.106,0.56 0.313,1.06 0.62,1.5 0.32,0.44 0.72,0.787 1.2,1.04 0.493,0.253 1.026,0.38 1.6,0.38 0.493,0 0.966,-0.073 1.42,-0.22 0.466,-0.16 0.853,-0.387 1.16,-0.68 l 1.28,1.26 c -0.6,0.453 -1.22,0.793 -1.86,1.02 -0.627,0.213 -1.32,0.32 -2.08,0.32 z m -3.32,-6.12 h 6.02 c -0.08,-0.533 -0.267,-1 -0.56,-1.4 -0.28,-0.413 -0.634,-0.733 -1.06,-0.96 -0.414,-0.24 -0.867,-0.36 -1.36,-0.36 -0.507,0 -0.974,0.113 -1.4,0.34 -0.427,0.227 -0.787,0.547 -1.08,0.96 -0.28,0.4 -0.467,0.873 -0.56,1.42 z M 298,126.2 c -0.88,0 -1.706,-0.127 -2.48,-0.38 -0.76,-0.267 -1.42,-0.64 -1.98,-1.12 l 1.1,-1.32 c 0.52,0.413 1.054,0.733 1.6,0.96 0.56,0.213 1.127,0.32 1.7,0.32 0.72,0 1.307,-0.14 1.76,-0.42 0.454,-0.28 0.68,-0.647 0.68,-1.1 0,-0.373 -0.133,-0.667 -0.4,-0.88 -0.266,-0.213 -0.68,-0.36 -1.24,-0.44 l -1.84,-0.26 c -1.013,-0.147 -1.773,-0.46 -2.28,-0.94 -0.506,-0.48 -0.76,-1.12 -0.76,-1.92 0,-0.613 0.167,-1.147 0.5,-1.6 0.334,-0.467 0.8,-0.827 1.4,-1.08 0.6,-0.267 1.3,-0.4 2.1,-0.4 0.734,0 1.44,0.107 2.12,0.32 0.68,0.213 1.334,0.547 1.96,1 l -1.02,1.32 c -0.56,-0.373 -1.106,-0.647 -1.64,-0.82 -0.52,-0.173 -1.046,-0.26 -1.58,-0.26 -0.613,0 -1.106,0.133 -1.48,0.4 -0.373,0.253 -0.56,0.587 -0.56,1 0,0.373 0.127,0.667 0.38,0.88 0.267,0.2 0.7,0.34 1.3,0.42 l 1.84,0.26 c 1.014,0.147 1.78,0.46 2.3,0.94 0.52,0.467 0.78,1.1 0.78,1.9 0,0.613 -0.186,1.167 -0.56,1.66 -0.373,0.48 -0.88,0.86 -1.52,1.14 -0.64,0.28 -1.366,0.42 -2.18,0.42 z m 10.735,0 c -0.987,0 -1.887,-0.233 -2.7,-0.7 -0.8,-0.467 -1.433,-1.1 -1.9,-1.9 -0.467,-0.8 -0.7,-1.693 -0.7,-2.68 0,-0.987 0.233,-1.88 0.7,-2.68 0.467,-0.8 1.1,-1.433 1.9,-1.9 0.813,-0.48 1.713,-0.72 2.7,-0.72 1,0 1.9,0.24 2.7,0.72 0.8,0.467 1.433,1.1 1.9,1.9 0.467,0.8 0.7,1.693 0.7,2.68 0,0.987 -0.233,1.88 -0.7,2.68 -0.467,0.8 -1.1,1.433 -1.9,1.9 -0.8,0.467 -1.7,0.7 -2.7,0.7 z m 0,-1.76 c 0.627,0 1.193,-0.153 1.7,-0.46 0.507,-0.32 0.907,-0.747 1.2,-1.28 0.293,-0.533 0.44,-1.133 0.44,-1.8 0,-0.653 -0.153,-1.24 -0.46,-1.76 -0.293,-0.533 -0.693,-0.96 -1.2,-1.28 -0.493,-0.32 -1.053,-0.48 -1.68,-0.48 -0.627,0 -1.193,0.16 -1.7,0.48 -0.493,0.32 -0.893,0.747 -1.2,1.28 -0.293,0.52 -0.44,1.107 -0.44,1.76 0,0.667 0.147,1.267 0.44,1.8 0.293,0.533 0.693,0.96 1.2,1.28 0.507,0.307 1.073,0.46 1.7,0.46 z m 11.131,1.76 c -0.787,0 -1.48,-0.167 -2.08,-0.5 -0.6,-0.333 -1.067,-0.8 -1.4,-1.4 -0.333,-0.613 -0.5,-1.313 -0.5,-2.1 v -6.38 h 1.98 v 6.04 c 0,0.8 0.227,1.433 0.68,1.9 0.467,0.467 1.087,0.7 1.86,0.7 0.547,0 1.033,-0.113 1.46,-0.34 0.427,-0.24 0.773,-0.573 1.04,-1 v -7.3 h 2 V 126 h -2 v -1.04 c -0.787,0.827 -1.8,1.24 -3.04,1.24 z m 7.408,-0.2 v -10.18 h 2 v 1.3 c 0.32,-0.48 0.713,-0.853 1.18,-1.12 0.48,-0.28 1.02,-0.42 1.62,-0.42 0.413,0.013 0.753,0.073 1.02,0.18 v 1.8 c -0.187,-0.08 -0.38,-0.133 -0.58,-0.16 -0.2,-0.04 -0.4,-0.06 -0.6,-0.06 -0.587,0 -1.107,0.16 -1.56,0.48 -0.454,0.307 -0.814,0.76 -1.08,1.36 V 126 Z m 11.616,0.18 c -0.974,0 -1.86,-0.233 -2.66,-0.7 -0.8,-0.467 -1.434,-1.1 -1.9,-1.9 -0.454,-0.8 -0.68,-1.693 -0.68,-2.68 0,-0.987 0.233,-1.873 0.7,-2.66 0.466,-0.8 1.093,-1.433 1.88,-1.9 0.8,-0.48 1.686,-0.72 2.66,-0.72 0.773,0 1.513,0.147 2.22,0.44 0.72,0.293 1.34,0.707 1.86,1.24 l -1.24,1.38 c -0.387,-0.427 -0.82,-0.747 -1.3,-0.96 -0.48,-0.213 -0.98,-0.32 -1.5,-0.32 -0.614,0 -1.174,0.153 -1.68,0.46 -0.494,0.307 -0.887,0.727 -1.18,1.26 -0.294,0.533 -0.44,1.127 -0.44,1.78 0,0.653 0.146,1.247 0.44,1.78 0.293,0.533 0.693,0.96 1.2,1.28 0.506,0.307 1.073,0.46 1.7,0.46 0.52,0 1.006,-0.1 1.46,-0.3 0.453,-0.213 0.88,-0.52 1.28,-0.92 l 1.22,1.28 c -0.534,0.547 -1.154,0.967 -1.86,1.26 -0.694,0.293 -1.42,0.44 -2.18,0.44 z m 10.236,0 c -1,0 -1.906,-0.233 -2.72,-0.7 -0.8,-0.467 -1.44,-1.1 -1.92,-1.9 -0.466,-0.8 -0.7,-1.693 -0.7,-2.68 0,-0.973 0.227,-1.853 0.68,-2.64 0.454,-0.8 1.067,-1.433 1.84,-1.9 0.774,-0.48 1.634,-0.72 2.58,-0.72 0.947,0 1.787,0.24 2.52,0.72 0.734,0.467 1.314,1.107 1.74,1.92 0.44,0.8 0.66,1.707 0.66,2.72 v 0.56 h -8.02 c 0.107,0.56 0.314,1.06 0.62,1.5 0.32,0.44 0.72,0.787 1.2,1.04 0.494,0.253 1.027,0.38 1.6,0.38 0.494,0 0.967,-0.073 1.42,-0.22 0.467,-0.16 0.854,-0.387 1.16,-0.68 l 1.28,1.26 c -0.6,0.453 -1.22,0.793 -1.86,1.02 -0.626,0.213 -1.32,0.32 -2.08,0.32 z m -3.32,-6.12 h 6.02 c -0.08,-0.533 -0.266,-1 -0.56,-1.4 -0.28,-0.413 -0.633,-0.733 -1.06,-0.96 -0.413,-0.24 -0.866,-0.36 -1.36,-0.36 -0.506,0 -0.973,0.113 -1.4,0.34 -0.426,0.227 -0.786,0.547 -1.08,0.96 -0.28,0.4 -0.466,0.873 -0.56,1.42 z m 14.325,5.94 v -14 h 2.04 l 7.82,10.4 V 112 h 1.98 v 14 h -1.84 l -8,-10.72 V 126 Z m 17.492,0.18 c -0.734,0 -1.38,-0.127 -1.94,-0.38 -0.56,-0.267 -1,-0.633 -1.32,-1.1 -0.32,-0.467 -0.48,-1.007 -0.48,-1.62 0,-0.96 0.366,-1.713 1.1,-2.26 0.733,-0.56 1.74,-0.84 3.02,-0.84 1,0 1.926,0.193 2.78,0.58 v -1.08 c 0,-0.733 -0.214,-1.28 -0.64,-1.64 -0.414,-0.36 -1.027,-0.54 -1.84,-0.54 -0.467,0 -0.954,0.073 -1.46,0.22 -0.507,0.133 -1.074,0.347 -1.7,0.64 l -0.74,-1.5 c 0.773,-0.36 1.493,-0.62 2.16,-0.78 0.666,-0.173 1.34,-0.26 2.02,-0.26 1.32,0 2.34,0.313 3.06,0.94 0.733,0.627 1.1,1.52 1.1,2.68 V 126 h -1.96 v -0.88 c -0.454,0.36 -0.94,0.627 -1.46,0.8 -0.52,0.173 -1.087,0.26 -1.7,0.26 z m -1.82,-3.14 c 0,0.493 0.206,0.893 0.62,1.2 0.426,0.293 0.98,0.44 1.66,0.44 0.533,0 1.02,-0.073 1.46,-0.22 0.453,-0.16 0.866,-0.407 1.24,-0.74 V 122 c -0.387,-0.227 -0.794,-0.387 -1.22,-0.48 -0.414,-0.107 -0.88,-0.16 -1.4,-0.16 -0.734,0 -1.314,0.153 -1.74,0.46 -0.414,0.293 -0.62,0.7 -0.62,1.22 z M 387.8,126 383.4,115.82 h 2.2 l 3.18,7.62 3.18,-7.62 h 2.12 L 389.72,126 Z m 7.521,0 v -10.18 h 2 V 126 Z m 1,-11.82 c -0.334,0 -0.62,-0.12 -0.86,-0.36 -0.24,-0.253 -0.36,-0.547 -0.36,-0.88 0,-0.347 0.12,-0.633 0.36,-0.86 0.24,-0.24 0.526,-0.36 0.86,-0.36 0.346,0 0.64,0.12 0.88,0.36 0.24,0.227 0.36,0.513 0.36,0.86 0,0.333 -0.12,0.627 -0.36,0.88 -0.24,0.24 -0.534,0.36 -0.88,0.36 z m 8.395,16.1 c -0.747,0 -1.473,-0.087 -2.18,-0.26 -0.707,-0.173 -1.347,-0.42 -1.92,-0.74 l 0.76,-1.56 c 0.6,0.307 1.16,0.527 1.68,0.66 0.533,0.147 1.067,0.22 1.6,0.22 0.893,0 1.567,-0.207 2.02,-0.62 0.467,-0.413 0.7,-1.02 0.7,-1.82 V 125 c -0.893,0.707 -1.913,1.06 -3.06,1.06 -0.933,0 -1.793,-0.227 -2.58,-0.68 -0.773,-0.467 -1.387,-1.093 -1.84,-1.88 -0.453,-0.8 -0.68,-1.68 -0.68,-2.64 0,-0.973 0.227,-1.853 0.68,-2.64 0.467,-0.8 1.087,-1.427 1.86,-1.88 0.787,-0.467 1.667,-0.7 2.64,-0.7 0.547,0 1.073,0.093 1.58,0.28 0.52,0.173 0.993,0.427 1.42,0.76 v -0.86 h 1.98 v 10.34 c 0,1.32 -0.407,2.333 -1.22,3.04 -0.8,0.72 -1.947,1.08 -3.44,1.08 z m -0.14,-5.94 c 0.587,0 1.12,-0.1 1.6,-0.3 0.48,-0.213 0.88,-0.513 1.2,-0.9 v -4.56 c -0.32,-0.373 -0.727,-0.667 -1.22,-0.88 -0.48,-0.213 -1.007,-0.32 -1.58,-0.32 -0.64,0 -1.22,0.153 -1.74,0.46 -0.507,0.307 -0.913,0.727 -1.22,1.26 -0.293,0.52 -0.44,1.107 -0.44,1.76 0,0.653 0.147,1.247 0.44,1.78 0.307,0.52 0.713,0.933 1.22,1.24 0.52,0.307 1.1,0.46 1.74,0.46 z m 10.371,1.84 c -0.733,0 -1.38,-0.127 -1.94,-0.38 -0.56,-0.267 -1,-0.633 -1.32,-1.1 -0.32,-0.467 -0.48,-1.007 -0.48,-1.62 0,-0.96 0.367,-1.713 1.1,-2.26 0.733,-0.56 1.74,-0.84 3.02,-0.84 1,0 1.927,0.193 2.78,0.58 v -1.08 c 0,-0.733 -0.213,-1.28 -0.64,-1.64 -0.413,-0.36 -1.027,-0.54 -1.84,-0.54 -0.467,0 -0.953,0.073 -1.46,0.22 -0.507,0.133 -1.073,0.347 -1.7,0.64 l -0.74,-1.5 c 0.773,-0.36 1.493,-0.62 2.16,-0.78 0.667,-0.173 1.34,-0.26 2.02,-0.26 1.32,0 2.34,0.313 3.06,0.94 0.733,0.627 1.1,1.52 1.1,2.68 V 126 h -1.96 v -0.88 c -0.453,0.36 -0.94,0.627 -1.46,0.8 -0.52,0.173 -1.087,0.26 -1.7,0.26 z m -1.82,-3.14 c 0,0.493 0.207,0.893 0.62,1.2 0.427,0.293 0.98,0.44 1.66,0.44 0.533,0 1.02,-0.073 1.46,-0.22 0.453,-0.16 0.867,-0.407 1.24,-0.74 V 122 c -0.387,-0.227 -0.793,-0.387 -1.22,-0.48 -0.413,-0.107 -0.88,-0.16 -1.4,-0.16 -0.733,0 -1.313,0.153 -1.74,0.46 -0.413,0.293 -0.62,0.7 -0.62,1.22 z m 13.311,3.14 c -0.986,0 -1.74,-0.227 -2.26,-0.68 -0.52,-0.467 -0.78,-1.14 -0.78,-2.02 v -5.98 h -2.16 v -1.68 h 2.16 v -2.6 l 1.98,-0.48 v 3.08 h 3 v 1.68 h -3 v 5.52 c 0,0.52 0.114,0.893 0.34,1.12 0.24,0.213 0.627,0.32 1.16,0.32 0.28,0 0.527,-0.02 0.74,-0.06 0.227,-0.04 0.467,-0.1 0.72,-0.18 v 1.68 c -0.266,0.093 -0.58,0.16 -0.94,0.2 -0.346,0.053 -0.666,0.08 -0.96,0.08 z m 8.098,0.02 c -0.987,0 -1.887,-0.233 -2.7,-0.7 -0.8,-0.467 -1.434,-1.1 -1.9,-1.9 -0.467,-0.8 -0.7,-1.693 -0.7,-2.68 0,-0.987 0.233,-1.88 0.7,-2.68 0.466,-0.8 1.1,-1.433 1.9,-1.9 0.813,-0.48 1.713,-0.72 2.7,-0.72 1,0 1.9,0.24 2.7,0.72 0.8,0.467 1.433,1.1 1.9,1.9 0.466,0.8 0.7,1.693 0.7,2.68 0,0.987 -0.234,1.88 -0.7,2.68 -0.467,0.8 -1.1,1.433 -1.9,1.9 -0.8,0.467 -1.7,0.7 -2.7,0.7 z m 0,-1.76 c 0.626,0 1.193,-0.153 1.7,-0.46 0.506,-0.32 0.906,-0.747 1.2,-1.28 0.293,-0.533 0.44,-1.133 0.44,-1.8 0,-0.653 -0.154,-1.24 -0.46,-1.76 -0.294,-0.533 -0.694,-0.96 -1.2,-1.28 -0.494,-0.32 -1.054,-0.48 -1.68,-0.48 -0.627,0 -1.194,0.16 -1.7,0.48 -0.494,0.32 -0.894,0.747 -1.2,1.28 -0.294,0.52 -0.44,1.107 -0.44,1.76 0,0.667 0.146,1.267 0.44,1.8 0.293,0.533 0.693,0.96 1.2,1.28 0.506,0.307 1.073,0.46 1.7,0.46 z m 7.191,1.56 v -10.18 h 2 v 1.3 c 0.32,-0.48 0.713,-0.853 1.18,-1.12 0.48,-0.28 1.02,-0.42 1.62,-0.42 0.413,0.013 0.753,0.073 1.02,0.18 v 1.8 c -0.187,-0.08 -0.38,-0.133 -0.58,-0.16 -0.2,-0.04 -0.4,-0.06 -0.6,-0.06 -0.587,0 -1.107,0.16 -1.56,0.48 -0.453,0.307 -0.813,0.76 -1.08,1.36 V 126 Z"
     fill="#000000"
     id="path20" />
  <defs
     id="defs24">
    <filter
       id="filter0_d_1152_78"
       x="0.854837"
       y="0.68387002"
       width="158.15199"
       height="158.151"
       filterUnits="userSpaceOnUse"
       color-interpolation-filters="sRGB">
      <feFlood
         flood-opacity="0"
         result="BackgroundImageFix"
         id="feFlood20" />
      <feColorMatrix
         in="SourceAlpha"
         type="matrix"
         values="0 0 0 0 0 0 0 0 0 0 0 0 0 0 0 0 0 0 127 0"
         result="hardAlpha"
         id="feColorMatrix20" />
      <feOffset
         dy="4.82903"
         id="feOffset20" />
      <feGaussianBlur
         stdDeviation="12.0726"
         id="feGaussianBlur20" />
      <feComposite
         in2="hardAlpha"
         operator="out"
         id="feComposite20" />
      <feColorMatrix
         type="matrix"
         values="0 0 0 0 0 0 0 0 0 0 0 0 0 0 0 0 0 0 0.2 0"
         id="feColorMatrix21" />
      <feBlend
         mode="normal"
         in2="BackgroundImageFix"
         result="effect1_dropShadow_1152_78"
         id="feBlend21" />
      <feBlend
         mode="normal"
         in="SourceGraphic"
         in2="effect1_dropShadow_1152_78"
         result="shape"
         id="feBlend22" />
    </filter>
    <linearGradient
       id="paint0_linear_1152_78"
       x1="25"
       y1="129.86"
       x2="134.86"
       y2="20"
       gradientUnits="userSpaceOnUse">
      <stop
         stop-color="#FDDEBA"
         id="stop22" />
      <stop
         offset="0.355"
         stop-color="#FEE6C9"
         id="stop23" />
      <stop
         offset="1"
         stop-color="#FFFAF4"
         id="stop24" />
    </linearGradient>
    <clipPath
       id="clip0_1152_78">
      <rect
         x="25"
         y="20"
         width="109.86"
         height="109.86"
         rx="24.145201"
         fill="#ffffff"
         id="rect24" />
    </clipPath>
  </defs>
</svg>
